<svg width="281" height="281" viewBox="0 0 281 281" fill="none" xmlns="http://www.w3.org/2000/svg">
<g filter="url(#filter0_d_15_1542)">
<path d="M261 135.5C261 168.785 247.778 200.706 224.242 224.242C200.706 247.778 168.785 261 135.5 261C102.215 261 70.2939 247.778 46.7581 224.242C23.2223 200.706 10 168.785 10 135.5C10 102.215 23.2223 70.2939 46.7581 46.7581C70.2939 23.2223 102.215 10 135.5 10C168.785 10 200.706 23.2223 224.242 46.7581C247.778 70.2939 261 102.215 261 135.5ZM198.721 87.9669C197.6 86.8502 196.266 85.971 194.798 85.3818C193.33 84.7926 191.758 84.5056 190.176 84.5378C188.594 84.57 187.035 84.9208 185.593 85.5693C184.15 86.2178 182.852 87.1506 181.778 88.312L127.295 157.729L94.4615 124.88C92.2311 122.801 89.2812 121.67 86.2331 121.724C83.185 121.777 80.2767 123.012 78.1211 125.168C75.9654 127.324 74.7306 130.232 74.6768 133.28C74.623 136.328 75.7545 139.278 77.8327 141.508L119.342 183.033C120.46 184.149 121.792 185.029 123.257 185.619C124.723 186.21 126.292 186.499 127.872 186.47C129.452 186.44 131.009 186.093 132.452 185.449C133.895 184.805 135.193 183.876 136.269 182.719L198.893 104.439C201.028 102.219 202.208 99.2505 202.178 96.1708C202.149 93.0911 200.913 90.1456 198.736 87.9669H198.721Z" fill="#2F70D9"/>
<path d="M180.598 87.3859L127.16 155.472L95.5224 123.819L95.5036 123.8L95.4841 123.782C92.9694 121.439 89.6433 120.163 86.2066 120.224C82.7699 120.285 79.4909 121.677 77.0604 124.107C74.6299 126.538 73.2377 129.817 73.1771 133.253C73.1164 136.69 74.3921 140.016 76.7353 142.531L76.7533 142.55L76.7719 142.569L118.281 184.094L118.282 184.095C119.543 185.353 121.044 186.345 122.697 187.011C124.349 187.676 126.119 188.002 127.9 187.969C129.681 187.936 131.437 187.545 133.064 186.818C134.69 186.092 136.154 185.045 137.367 183.741L137.405 183.7L137.44 183.656L200.023 105.428C202.399 102.93 203.711 99.6053 203.678 96.1565C203.645 92.6841 202.252 89.3632 199.797 86.9067L199.358 86.4669H199.319C198.156 85.4143 196.815 84.5751 195.356 83.9897C193.701 83.3254 191.929 83.0018 190.145 83.0381C188.362 83.0744 186.605 83.47 184.978 84.2011C183.351 84.9323 181.888 85.9841 180.677 87.2935L180.636 87.3381L180.598 87.3859ZM259.5 135.5C259.5 168.387 246.436 199.927 223.181 223.181C199.927 246.436 168.387 259.5 135.5 259.5C102.613 259.5 71.0733 246.436 47.8188 223.181C24.5642 199.927 11.5 168.387 11.5 135.5C11.5 102.613 24.5642 71.0733 47.8188 47.8188C71.0733 24.5642 102.613 11.5 135.5 11.5C168.387 11.5 199.927 24.5642 223.181 47.8188C246.436 71.0733 259.5 102.613 259.5 135.5Z" stroke="white" stroke-width="3"/>
</g>
<defs>
<filter id="filter0_d_15_1542" x="0" y="0" width="281" height="281" filterUnits="userSpaceOnUse" color-interpolation-filters="sRGB">
<feFlood flood-opacity="0" result="BackgroundImageFix"/>
<feColorMatrix in="SourceAlpha" type="matrix" values="0 0 0 0 0 0 0 0 0 0 0 0 0 0 0 0 0 0 127 0" result="hardAlpha"/>
<feOffset dx="5" dy="5"/>
<feGaussianBlur stdDeviation="7.5"/>
<feComposite in2="hardAlpha" operator="out"/>
<feColorMatrix type="matrix" values="0 0 0 0 0 0 0 0 0 0 0 0 0 0 0 0 0 0 0.1 0"/>
<feBlend mode="normal" in2="BackgroundImageFix" result="effect1_dropShadow_15_1542"/>
<feBlend mode="normal" in="SourceGraphic" in2="effect1_dropShadow_15_1542" result="shape"/>
</filter>
</defs>
</svg>
